<?xml version="1.0" encoding="iso-8859-1"?>
<!-- Generator: Adobe Illustrator 19.0.0, SVG Export Plug-In . SVG Version: 6.00 Build 0)  -->
<svg version="1.1" id="Layer_1" xmlns="http://www.w3.org/2000/svg" xmlns:xlink="http://www.w3.org/1999/xlink" x="0px" y="0px"
	 viewBox="0 0 512 512" style="enable-background:new 0 0 512 512;" xml:space="preserve">
<g>
	<g>
		<path d="M448,170.667c5.867,0,10.667-4.8,10.667-10.667v-50.773c0-11.733-4.587-23.04-12.8-31.36l-64-64.747
			C373.653,4.8,362.453,0,350.72,0H97.387c-24.32,0-44.053,19.947-44.053,44.48V160c0,5.867,4.8,10.667,10.667,10.667h21.333v96H64
			c-5.867,0-10.667,4.8-10.667,10.667V467.52c0,24.533,19.733,44.48,44.053,44.48h105.28c5.867,0,10.667-4.8,10.667-10.667V480
			h85.333v21.333c0,5.867,4.8,10.667,10.667,10.667h105.28c24.32,0,44.053-19.947,44.053-44.48V234.667
			c0-5.867-4.8-10.667-10.667-10.667h-21.333v-53.333H448z M288,21.333h32V64h-32V21.333z M245.333,21.333h21.333V64h-21.333V21.333
			z M192,21.333h32V64h-32V21.333z M138.667,21.333h32V64h-32V21.333z M416,245.333h21.333V467.52
			c0.107,12.693-10.027,23.04-22.72,23.147H320v-21.333c0-5.867-4.8-10.667-10.667-10.667H202.667
			c-5.867,0-10.667,4.8-10.667,10.667v21.333H97.387c-12.693-0.107-22.827-10.56-22.72-23.147V288H96
			c5.867,0,10.667-4.8,10.667-10.667V160c0-5.867-4.8-10.667-10.667-10.667H74.667V44.48c-0.107-12.587,10.027-23.04,22.72-23.147
			h19.947v53.333c0,5.867,4.8,10.667,10.667,10.667h202.667c5.867,0,10.667-4.8,10.667-10.667V21.333h9.387
			c5.973,0,11.84,2.453,16,6.72L430.613,92.8c4.267,4.373,6.72,10.347,6.72,16.427v40.107H416c-5.867,0-10.667,4.8-10.667,10.667
			v74.667C405.333,240.533,410.133,245.333,416,245.333z"/>
	</g>
</g>
<g>
</g>
<g>
</g>
<g>
</g>
<g>
</g>
<g>
</g>
<g>
</g>
<g>
</g>
<g>
</g>
<g>
</g>
<g>
</g>
<g>
</g>
<g>
</g>
<g>
</g>
<g>
</g>
<g>
</g>
</svg>
