<?xml version="1.0" encoding="iso-8859-1"?>
<!-- Generator: Adobe Illustrator 16.0.0, SVG Export Plug-In . SVG Version: 6.00 Build 0)  -->
<!DOCTYPE svg PUBLIC "-//W3C//DTD SVG 1.1//EN" "http://www.w3.org/Graphics/SVG/1.1/DTD/svg11.dtd">
<svg version="1.1" id="Capa_1" xmlns="http://www.w3.org/2000/svg" xmlns:xlink="http://www.w3.org/1999/xlink" x="0px" y="0px"
	 width="445.977px" height="445.976px" viewBox="0 0 445.977 445.976" style="enable-background:new 0 0 445.977 445.976;"
	 xml:space="preserve">
<g>
	<path style="fill:#030303;" d="M104.917,0v445.976H341.06V0H104.917z M116.627,434.26V11.71h212.721V44.4H191.634v11.71h137.715
		v11.711H223.838v11.71h105.511v11.711H223.838v11.71h105.511v11.711H223.838v11.71h105.511v11.711H223.838v11.71h105.511v11.71
		H191.634v11.71h137.715v11.71H223.838v11.71h105.511v11.71H223.838v11.711h105.511v11.71H223.838v11.711h105.511v11.71H223.838
		V266.9h105.511v11.711H191.634v11.71h137.715v11.71H223.838v11.711h105.511v11.711H223.838v11.71h105.511v11.711H223.838v11.71
		h105.511v11.711H223.838v11.71h105.511v11.711H191.634v11.71h137.715v26.835H116.627z"/>
</g>
<g>
</g>
<g>
</g>
<g>
</g>
<g>
</g>
<g>
</g>
<g>
</g>
<g>
</g>
<g>
</g>
<g>
</g>
<g>
</g>
<g>
</g>
<g>
</g>
<g>
</g>
<g>
</g>
<g>
</g>
</svg>
