<?xml version="1.0" encoding="iso-8859-1"?>
<!-- Generator: Adobe Illustrator 16.0.0, SVG Export Plug-In . SVG Version: 6.00 Build 0)  -->
<!DOCTYPE svg PUBLIC "-//W3C//DTD SVG 1.1//EN" "http://www.w3.org/Graphics/SVG/1.1/DTD/svg11.dtd">
<svg version="1.1" id="Capa_1" xmlns="http://www.w3.org/2000/svg" xmlns:xlink="http://www.w3.org/1999/xlink" x="0px" y="0px"
	 width="363.025px" height="363.024px" viewBox="0 0 363.025 363.024" style="enable-background:new 0 0 363.025 363.024;"
	 xml:space="preserve">
<g>
	<g>
		<path d="M178.059,265.944c-35.952,0-65.2-29.248-65.2-65.196c0-34.969,58.764-88.778,61.263-91.051
			l3.937-3.577l3.939,3.583c2.499,2.273,61.257,56.088,61.257,91.05C243.255,236.696,214.008,265.944,178.059,265.944z
			 M178.059,122.039c-17.94,17.134-53.489,55.802-53.489,78.709c0,29.493,23.996,53.486,53.489,53.486
			c29.493,0,53.486-23.993,53.486-53.486C231.545,177.824,196.002,139.167,178.059,122.039z"/>
	</g>
	<g>
		<path d="M181.512,363.024C81.43,363.024,0,281.601,0,181.513C0,81.43,81.43,0,181.512,0
			c100.089,0,181.513,81.43,181.513,181.513C363.025,281.601,281.601,363.024,181.512,363.024z M181.512,11.71
			C87.88,11.71,11.71,87.88,11.71,181.513c0,93.627,76.17,169.802,169.802,169.802c93.627,0,169.803-76.175,169.803-169.802
			C351.315,87.88,275.139,11.71,181.512,11.71z"/>
	</g>
</g>
<g>
</g>
<g>
</g>
<g>
</g>
<g>
</g>
<g>
</g>
<g>
</g>
<g>
</g>
<g>
</g>
<g>
</g>
<g>
</g>
<g>
</g>
<g>
</g>
<g>
</g>
<g>
</g>
<g>
</g>
</svg>
