<?xml version="1.0" encoding="iso-8859-1"?>
<!-- Generator: Adobe Illustrator 18.1.1, SVG Export Plug-In . SVG Version: 6.00 Build 0)  -->
<svg version="1.1" id="Capa_1" xmlns="http://www.w3.org/2000/svg" xmlns:xlink="http://www.w3.org/1999/xlink" x="0px" y="0px"
	 viewBox="0 0 369.946 369.946" style="enable-background:new 0 0 369.946 369.946;" xml:space="preserve">
<g>
	<g>
		<path style="fill:#010002;" d="M184.973,369.946C82.981,369.946,0,286.971,0,184.973C0,82.981,82.981,0,184.973,0
			c101.998,0,184.973,82.981,184.973,184.973C369.946,286.971,286.971,369.946,184.973,369.946z M184.973,11.934
			c-95.416,0-173.039,77.623-173.039,173.039c0,95.41,77.623,173.039,173.039,173.039c95.41,0,173.039-77.629,173.039-173.039
			C358.012,89.557,280.383,11.934,184.973,11.934z"/>
	</g>
	<g>
		<polygon style="fill:#010002;" points="179.006,199.377 179.006,58.219 190.94,58.219 190.94,170.569 233.358,128.15 
			241.795,136.588 		"/>
	</g>
</g>
<g>
</g>
<g>
</g>
<g>
</g>
<g>
</g>
<g>
</g>
<g>
</g>
<g>
</g>
<g>
</g>
<g>
</g>
<g>
</g>
<g>
</g>
<g>
</g>
<g>
</g>
<g>
</g>
<g>
</g>
</svg>
