<?xml version="1.0" encoding="iso-8859-1"?>
<!-- Generator: Adobe Illustrator 16.0.0, SVG Export Plug-In . SVG Version: 6.00 Build 0)  -->
<!DOCTYPE svg PUBLIC "-//W3C//DTD SVG 1.1//EN" "http://www.w3.org/Graphics/SVG/1.1/DTD/svg11.dtd">
<svg version="1.1" id="Capa_1" xmlns="http://www.w3.org/2000/svg" xmlns:xlink="http://www.w3.org/1999/xlink" x="0px" y="0px"
	 width="360.908px" height="360.909px" viewBox="0 0 360.908 360.909" style="enable-background:new 0 0 360.908 360.909;"
	 xml:space="preserve">
<g>
	<path style="fill:#030303;" d="M322.781,81.629L183.391,0.792c-1.821-1.055-4.057-1.055-5.878,0L38.122,81.629
		c-1.81,1.047-2.917,2.979-2.917,5.063v166.872c0,1.869,0.898,3.631,2.407,4.74l139.397,101.488c0.111,0.08,0.246,0.109,0.363,0.184
		c0.152,0.091,0.274,0.223,0.432,0.303c0.095,0.046,0.206,0.028,0.306,0.068c0.749,0.338,1.532,0.561,2.347,0.561
		c0.814,0,1.599-0.223,2.348-0.561c0.1-0.04,0.211-0.022,0.306-0.068c0.157-0.08,0.28-0.206,0.432-0.303
		c0.117-0.074,0.252-0.109,0.363-0.184l139.391-101.488c1.51-1.104,2.407-2.865,2.407-4.74V86.693
		C325.697,84.609,324.594,82.676,322.781,81.629z M180.451,12.63l127.715,74.062l-127.715,74.068L52.731,86.693L180.451,12.63z
		 M46.916,96.865l37.158,21.545l90.522,52.494v172.645l-127.68-92.958V96.865z M313.987,250.591l-127.681,92.958V170.905
		l100.079-58.038l27.602-16.007V250.591z"/>
</g>
<g>
</g>
<g>
</g>
<g>
</g>
<g>
</g>
<g>
</g>
<g>
</g>
<g>
</g>
<g>
</g>
<g>
</g>
<g>
</g>
<g>
</g>
<g>
</g>
<g>
</g>
<g>
</g>
<g>
</g>
</svg>
